<?xml version="1.0" encoding="UTF-8"?>
<svg width="56px" height="56px" viewBox="0 0 56 56" version="1.1" xmlns="http://www.w3.org/2000/svg" xmlns:xlink="http://www.w3.org/1999/xlink">
    <title>Slice 1</title>
    <g id="Page-1" stroke="none" stroke-width="1" fill="none" fill-rule="evenodd">
        <path d="M28,0 C12.561,0 0,12.561 0,28 C0,43.439 12.561,56 28,56 C43.439,56 56,43.439 56,28 C56,12.561 43.439,0 28,0 Z" id="Path" fill="#000000" fill-rule="nonzero"></path>
        <path d="M40,41 L16,41 C14.896,41 14,40.104 14,39 C14,37.896 14.896,37 16,37 L40,37 C41.104,37 42,37.896 42,39 C42,40.104 41.104,41 40,41 Z" id="Path" fill="#FFFFFF" fill-rule="nonzero"></path>
        <path d="M40,30 L16,30 C14.896,30 14,29.104 14,28 C14,26.896 14.896,26 16,26 L40,26 C41.104,26 42,26.896 42,28 C42,29.104 41.104,30 40,30 Z" id="Path" fill="#FFFFFF" fill-rule="nonzero"></path>
        <path d="M40,19 L16,19 C14.896,19 14,18.104 14,17 C14,15.896 14.896,15 16,15 L40,15 C41.104,15 42,15.896 42,17 C42,18.104 41.104,19 40,19 Z" id="Path" fill="#FFFFFF" fill-rule="nonzero"></path>
    </g>
</svg>